Road Train 2010

General
IMBD                             : http://www.imdb.com/title/tt1241330/
IMBD Rating                      : 4.2/10 (548 Votes)
File Name                        : Road Train[2010]DVDRip-MXMG 
Format                           : AVI
Format/Info                      : Audio Video Interleave
File size                        : 698 MiB
Duration                         : 1h 9mn
Overall bit rate                 : 1 400 Kbps
Writing application              : VirtualDubMod 1.5.10.2 (build 2540/release)
Writing library                  : VirtualDubMod build 2540/release

Video
ID                               : 0
Format                           : MPEG-4 Visual
Format profile                   : Advanced Simple@L5
Format settings, BVOP            : Yes
Format settings, QPel            : No
Format settings, GMC             : No warppoints
Format settings, Matrix          : Default (H.263)
Muxing mode                      : Packed bitstream
Codec ID                         : XVID
Codec ID/Hint                    : XviD
Duration                         : 1h 9mn
Bit rate                         : 1 263 Kbps
Width                            : 640 pixels
Height                           : 344 pixels
Display aspect ratio             : 1.860
Frame rate                       : 25.000 fps
Color space                      : YUV
Chroma subsampling               : 4:2:0
Bit depth                        : 8 bits
Scan type                        : Progressive
Bits/(Pixel*Frame)               : 0.229
Stream size                      : 629 MiB (90%)
Writing library                  : XviD 1.2.1 (UTC 2008-12-04)

Audio
ID                               : 1
Format                           : MPEG Audio
Format version                   : Version 1
Format profile                   : Layer 3
Codec ID                         : 55
Codec ID/Hint                    : MP3
Duration                         : 1h 9mn
Bit rate mode                    : Constant
Bit rate                         : 128 Kbps
Channel(s)                       : 2 channels
Sampling rate                    : 48.0 KHz
Stream size                      : 63.8 MiB (9%)
Alignment                        : Aligned on interleaves
Interleave, duration             : 40 ms (1.00 video frame)
Interleave, preload duration     : 504 ms
Writing library                  : LAME3.98r
Encoding settings                : -m s -V 4 -q 2 -lowpass 17 -b 128


Plot/Storyline:
A supernatural thriller about a group of teenagers menaced by a driver-less train in the Australian outback.

Screenshots:
 
http://bayimg.com/PaAHkaaDD
 
http://bayimg.com/PAahLaAdd
 
http://bayimg.com/pAaHmAaDD


Happy Leeching and don't forget to seed :)
 


